<svg xmlns="http://www.w3.org/2000/svg" width="320" height="84" viewBox="0 0 320 84" fill="none">
<rect width="320" height="84" rx="12" fill="#F5F6F8"/>
<path d="M26 20h34c10.493 0 19 8.507 19 19v0c0 10.493-8.507 19-19 19H26V20Z" fill="#0F2F73"/>
<path d="M38 32h18c5.523 0 10 4.477 10 10v0c0 5.523-4.477 10-10 10H38V32Z" fill="#0F9D58"/>
<path d="M92 24h18l12 20 12-20h18v36h-14V42l-11 18h-10l-11-18v18H92V24Zm74 0h14v36h-14V24Zm26 0h39v11h-25v3h22v10h-22v12h-14V24Zm47 0h40v11h-26v3h22v10h-22v12h-14V24Z" fill="#081B47"/>
<path d="M285 24h9c0 9.389-7.611 17-17 17v-9c4.418 0 8-3.582 8-8Z" fill="#0F9D58"/>
</svg>