<svg xmlns="http://www.w3.org/2000/svg" viewBox="0 0 240 72" role="img" aria-label="K-BAP">
  <g id="gimbap-slice">
    <circle cx="36" cy="36" r="32" fill="#231F20"/>
    <circle cx="36" cy="36" r="24" fill="#FAF7F2"/>
    <path d="M31 18h10l5 15-10 6-10-6z" fill="#58A64B"/>
    <path d="M20 39c4-8 12-10 18-5 4 4 4 11-1 15-7 5-16 1-17-10z" fill="#F25B3C"/>
    <path d="M39 36c6-6 16-3 17 6 1 7-6 12-13 9-6-3-8-10-4-15z" fill="#9B6546"/>
    <circle cx="36" cy="36" r="7" fill="#E8E5E0"/>
  </g>
  <text x="84" y="47" font-family="Arial, Helvetica, sans-serif" font-size="34" font-weight="900" letter-spacing="0" fill="#231F20">K-BAP</text>
</svg>
